# MagicaVoxel @ Ephtracy

# group
o 

# material
mtllib towerSlice5.mtl
usemtl palette

# normals
vn -1 0 0
vn 1 0 0
vn 0 0 1
vn 0 0 -1
vn 0 -1 0
vn 0 1 0

# texcoords
vt 0.0292969 0.5
vt 0.103516 0.5

# verts
v 0 2 0
v 0 2 -2.3
v 0 2 -4.1
v 0 2 -6.4
v 0 2.1 0
v 0 2.1 -2.3
v 0 2.1 -4.1
v 0 2.1 -6.4
v 6.2 2 -0.2
v 6.2 2 -2.3
v 6.2 2 -4.1
v 6.2 2 -6.2
v 6.2 2.1 -0.2
v 6.2 2.1 -2.3
v 6.2 2.1 -4.1
v 6.2 2.1 -6.2
v 0.2 2 -0.2
v 0.2 2 -2.3
v 0.2 2 -4.1
v 0.2 2 -6.2
v 0.2 2.1 -0.2
v 0.2 2.1 -2.3
v 0.2 2.1 -4.1
v 0.2 2.1 -6.2
v 6.4 2 0
v 6.4 2 -2.3
v 6.4 2 -4.1
v 6.4 2 -6.4
v 6.4 2.1 0
v 6.4 2.1 -2.3
v 6.4 2.1 -4.1
v 6.4 2.1 -6.4
v 0 2 0
v 0 2.1 0
v 2.2 2 0
v 2.2 2.1 0
v 4.2 2 0
v 4.2 2.1 0
v 6.4 2 0
v 6.4 2.1 0
v 0.2 2 -6.2
v 0.2 2.1 -6.2
v 2.2 2 -6.2
v 2.2 2.1 -6.2
v 4.2 2 -6.2
v 4.2 2.1 -6.2
v 6.2 2 -6.2
v 6.2 2.1 -6.2
v 0.2 2 -0.2
v 0.2 2.1 -0.2
v 2.2 2 -0.2
v 2.2 2.1 -0.2
v 4.2 2 -0.2
v 4.2 2.1 -0.2
v 6.2 2 -0.2
v 6.2 2.1 -0.2
v 0 2 -6.4
v 0 2.1 -6.4
v 2.2 2 -6.4
v 2.2 2.1 -6.4
v 4.2 2 -6.4
v 4.2 2.1 -6.4
v 6.4 2 -6.4
v 6.4 2.1 -6.4
v 0 2 0
v 2.2 2 0
v 4.2 2 0
v 6.4 2 0
v 0.2 2 -0.2
v 2.2 2 -0.2
v 4.2 2 -0.2
v 6.2 2 -0.2
v 0 2 -2.3
v 0.2 2 -2.3
v 6.2 2 -2.3
v 6.4 2 -2.3
v 0 2 -4.1
v 0.2 2 -4.1
v 6.2 2 -4.1
v 6.4 2 -4.1
v 0.2 2 -6.2
v 2.2 2 -6.2
v 4.2 2 -6.2
v 6.2 2 -6.2
v 0 2 -6.4
v 2.2 2 -6.4
v 4.2 2 -6.4
v 6.4 2 -6.4
v 0 2.1 0
v 2.2 2.1 0
v 4.2 2.1 0
v 6.4 2.1 0
v 0.2 2.1 -0.2
v 2.2 2.1 -0.2
v 4.2 2.1 -0.2
v 6.2 2.1 -0.2
v 0 2.1 -2.3
v 0.2 2.1 -2.3
v 6.2 2.1 -2.3
v 6.4 2.1 -2.3
v 0 2.1 -4.1
v 0.2 2.1 -4.1
v 6.2 2.1 -4.1
v 6.4 2.1 -4.1
v 0.2 2.1 -6.2
v 2.2 2.1 -6.2
v 4.2 2.1 -6.2
v 6.2 2.1 -6.2
v 0 2.1 -6.4
v 2.2 2.1 -6.4
v 4.2 2.1 -6.4
v 6.4 2.1 -6.4

# faces
f 5/2/1 2/2/1 1/2/1
f 6/1/1 3/1/1 2/1/1
f 6/2/1 2/2/1 5/2/1
f 7/2/1 4/2/1 3/2/1
f 7/1/1 3/1/1 6/1/1
f 8/2/1 4/2/1 7/2/1
f 13/2/1 10/2/1 9/2/1
f 14/1/1 11/1/1 10/1/1
f 14/2/1 10/2/1 13/2/1
f 15/2/1 12/2/1 11/2/1
f 15/1/1 11/1/1 14/1/1
f 16/2/1 12/2/1 15/2/1
f 17/2/2 18/2/2 21/2/2
f 18/1/2 19/1/2 22/1/2
f 21/2/2 18/2/2 22/2/2
f 19/2/2 20/2/2 23/2/2
f 22/1/2 19/1/2 23/1/2
f 23/2/2 20/2/2 24/2/2
f 25/2/2 26/2/2 29/2/2
f 26/1/2 27/1/2 30/1/2
f 29/2/2 26/2/2 30/2/2
f 27/2/2 28/2/2 31/2/2
f 30/1/2 27/1/2 31/1/2
f 31/2/2 28/2/2 32/2/2
f 35/2/3 34/2/3 33/2/3
f 36/2/3 34/2/3 35/2/3
f 37/1/3 36/1/3 35/1/3
f 38/1/3 36/1/3 37/1/3
f 39/2/3 38/2/3 37/2/3
f 40/2/3 38/2/3 39/2/3
f 43/2/3 42/2/3 41/2/3
f 44/2/3 42/2/3 43/2/3
f 45/1/3 44/1/3 43/1/3
f 46/1/3 44/1/3 45/1/3
f 47/2/3 46/2/3 45/2/3
f 48/2/3 46/2/3 47/2/3
f 49/2/4 50/2/4 51/2/4
f 51/2/4 50/2/4 52/2/4
f 51/1/4 52/1/4 53/1/4
f 53/1/4 52/1/4 54/1/4
f 53/2/4 54/2/4 55/2/4
f 55/2/4 54/2/4 56/2/4
f 57/2/4 58/2/4 59/2/4
f 59/2/4 58/2/4 60/2/4
f 59/1/4 60/1/4 61/1/4
f 61/1/4 60/1/4 62/1/4
f 61/2/4 62/2/4 63/2/4
f 63/2/4 62/2/4 64/2/4
f 69/2/5 66/2/5 65/2/5
f 70/1/5 67/1/5 66/1/5
f 70/2/5 66/2/5 69/2/5
f 71/2/5 68/2/5 67/2/5
f 71/1/5 67/1/5 70/1/5
f 72/2/5 68/2/5 71/2/5
f 73/2/5 69/2/5 65/2/5
f 74/2/5 69/2/5 73/2/5
f 75/2/5 68/2/5 72/2/5
f 76/2/5 68/2/5 75/2/5
f 77/1/5 74/1/5 73/1/5
f 78/1/5 74/1/5 77/1/5
f 79/1/5 76/1/5 75/1/5
f 80/1/5 76/1/5 79/1/5
f 81/2/5 78/2/5 77/2/5
f 84/2/5 80/2/5 79/2/5
f 85/2/5 81/2/5 77/2/5
f 85/2/5 82/2/5 81/2/5
f 86/1/5 83/1/5 82/1/5
f 86/2/5 82/2/5 85/2/5
f 87/2/5 84/2/5 83/2/5
f 87/1/5 83/1/5 86/1/5
f 88/2/5 80/2/5 84/2/5
f 88/2/5 84/2/5 87/2/5
f 89/2/6 90/2/6 93/2/6
f 90/1/6 91/1/6 94/1/6
f 93/2/6 90/2/6 94/2/6
f 91/2/6 92/2/6 95/2/6
f 94/1/6 91/1/6 95/1/6
f 95/2/6 92/2/6 96/2/6
f 89/2/6 93/2/6 97/2/6
f 97/2/6 93/2/6 98/2/6
f 96/2/6 92/2/6 99/2/6
f 99/2/6 92/2/6 100/2/6
f 97/1/6 98/1/6 101/1/6
f 101/1/6 98/1/6 102/1/6
f 99/1/6 100/1/6 103/1/6
f 103/1/6 100/1/6 104/1/6
f 101/2/6 102/2/6 105/2/6
f 103/2/6 104/2/6 108/2/6
f 101/2/6 105/2/6 109/2/6
f 105/2/6 106/2/6 109/2/6
f 106/1/6 107/1/6 110/1/6
f 109/2/6 106/2/6 110/2/6
f 107/2/6 108/2/6 111/2/6
f 110/1/6 107/1/6 111/1/6
f 108/2/6 104/2/6 112/2/6
f 111/2/6 108/2/6 112/2/6
