# MagicaVoxel @ Ephtracy

# group
o 

# material
mtllib flower1.mtl
usemtl palette

# normals
vn -1 0 0
vn 1 0 0
vn 0 0 1
vn 0 0 -1
vn 0 -1 0
vn 0 1 0

# texcoords
vt 0.0527344 0.5
vt 0.107422 0.5
vt 0.111328 0.5

# verts
v 0.1 2.7 0
v 0.1 2.7 -0.3
v 0.1 2.8 0
v 0.1 2.8 -0.3
v 0.2 2 -0.1
v 0.2 2 -0.2
v 0.2 2.7 -0.1
v 0.2 2.7 -0.2
v 0.2 2.8 -0.1
v 0.2 2.8 -0.2
v 0.2 2.9 -0.1
v 0.2 2.9 -0.2
v 0.3 2.8 0
v 0.3 2.8 -0.1
v 0.3 2.8 -0.2
v 0.3 2.8 -0.3
v 0.3 2.9 0
v 0.3 2.9 -0.1
v 0.3 2.9 -0.2
v 0.3 2.9 -0.3
v 0.3 2 -0.1
v 0.3 2 -0.2
v 0.3 2.7 0
v 0.3 2.7 -0.1
v 0.3 2.7 -0.2
v 0.3 2.7 -0.3
v 0.3 2.8 0
v 0.3 2.8 -0.1
v 0.3 2.8 -0.2
v 0.3 2.8 -0.3
v 0.4 2.8 0
v 0.4 2.8 -0.3
v 0.4 2.9 0
v 0.4 2.9 -0.3
v 0.1 2.7 0
v 0.1 2.8 0
v 0.3 2.7 0
v 0.3 2.8 0
v 0.3 2.9 0
v 0.4 2.8 0
v 0.4 2.9 0
v 0.2 2 -0.1
v 0.2 2.7 -0.1
v 0.2 2.8 -0.1
v 0.2 2.9 -0.1
v 0.3 2 -0.1
v 0.3 2.7 -0.1
v 0.3 2.8 -0.1
v 0.3 2.9 -0.1
v 0.2 2 -0.2
v 0.2 2.7 -0.2
v 0.2 2.8 -0.2
v 0.2 2.9 -0.2
v 0.3 2 -0.2
v 0.3 2.7 -0.2
v 0.3 2.8 -0.2
v 0.3 2.9 -0.2
v 0.1 2.7 -0.3
v 0.1 2.8 -0.3
v 0.3 2.7 -0.3
v 0.3 2.8 -0.3
v 0.3 2.9 -0.3
v 0.4 2.8 -0.3
v 0.4 2.9 -0.3
v 0.2 2 -0.1
v 0.3 2 -0.1
v 0.2 2 -0.2
v 0.3 2 -0.2
v 0.1 2.7 0
v 0.3 2.7 0
v 0.2 2.7 -0.1
v 0.3 2.7 -0.1
v 0.2 2.7 -0.2
v 0.3 2.7 -0.2
v 0.1 2.7 -0.3
v 0.3 2.7 -0.3
v 0.3 2.8 0
v 0.4 2.8 0
v 0.3 2.8 -0.1
v 0.3 2.8 -0.2
v 0.3 2.8 -0.3
v 0.4 2.8 -0.3
v 0.1 2.8 0
v 0.3 2.8 0
v 0.2 2.8 -0.1
v 0.3 2.8 -0.1
v 0.2 2.8 -0.2
v 0.3 2.8 -0.2
v 0.1 2.8 -0.3
v 0.3 2.8 -0.3
v 0.3 2.9 0
v 0.4 2.9 0
v 0.2 2.9 -0.1
v 0.3 2.9 -0.1
v 0.2 2.9 -0.2
v 0.3 2.9 -0.2
v 0.3 2.9 -0.3
v 0.4 2.9 -0.3

# faces
f 3/3/1 2/3/1 1/3/1
f 4/3/1 2/3/1 3/3/1
f 7/1/1 6/1/1 5/1/1
f 8/1/1 6/1/1 7/1/1
f 11/2/1 10/2/1 9/2/1
f 12/2/1 10/2/1 11/2/1
f 17/3/1 14/3/1 13/3/1
f 18/3/1 14/3/1 17/3/1
f 19/3/1 16/3/1 15/3/1
f 20/3/1 16/3/1 19/3/1
f 21/1/2 22/1/2 24/1/2
f 24/1/2 22/1/2 25/1/2
f 23/3/2 24/3/2 27/3/2
f 24/1/2 25/1/2 28/1/2
f 27/3/2 24/3/2 28/3/2
f 25/3/2 26/3/2 29/3/2
f 28/1/2 25/1/2 29/1/2
f 29/3/2 26/3/2 30/3/2
f 31/3/2 32/3/2 33/3/2
f 33/3/2 32/3/2 34/3/2
f 37/3/3 36/3/3 35/3/3
f 38/3/3 36/3/3 37/3/3
f 40/3/3 39/3/3 38/3/3
f 41/3/3 39/3/3 40/3/3
f 46/1/3 43/1/3 42/1/3
f 47/1/3 43/1/3 46/1/3
f 48/2/3 45/2/3 44/2/3
f 49/2/3 45/2/3 48/2/3
f 50/1/4 51/1/4 54/1/4
f 54/1/4 51/1/4 55/1/4
f 52/2/4 53/2/4 56/2/4
f 56/2/4 53/2/4 57/2/4
f 58/3/4 59/3/4 60/3/4
f 60/3/4 59/3/4 61/3/4
f 61/3/4 62/3/4 63/3/4
f 63/3/4 62/3/4 64/3/4
f 67/1/5 66/1/5 65/1/5
f 68/1/5 66/1/5 67/1/5
f 71/3/5 70/3/5 69/3/5
f 72/3/5 70/3/5 71/3/5
f 73/3/5 71/3/5 69/3/5
f 75/3/5 73/3/5 69/3/5
f 75/3/5 74/3/5 73/3/5
f 76/3/5 74/3/5 75/3/5
f 79/3/5 78/3/5 77/3/5
f 80/3/5 78/3/5 79/3/5
f 81/3/5 78/3/5 80/3/5
f 82/3/5 78/3/5 81/3/5
f 83/3/6 84/3/6 85/3/6
f 85/3/6 84/3/6 86/3/6
f 83/3/6 85/3/6 87/3/6
f 83/3/6 87/3/6 89/3/6
f 87/3/6 88/3/6 89/3/6
f 89/3/6 88/3/6 90/3/6
f 91/3/6 92/3/6 94/3/6
f 93/2/6 94/2/6 95/2/6
f 94/3/6 92/3/6 96/3/6
f 95/2/6 94/2/6 96/2/6
f 96/3/6 92/3/6 97/3/6
f 97/3/6 92/3/6 98/3/6
